<svg xmlns="http://www.w3.org/2000/svg" viewBox="0 0 32 32">
  <defs>
    <linearGradient id="g" x1="0" y1="0" x2="1" y2="1">
      <stop offset="0%" stop-color="#2563eb"/>
      <stop offset="100%" stop-color="#1d4ed8"/>
    </linearGradient>
  </defs>
  <rect width="32" height="32" rx="6" fill="url(#g)"/>
  <rect x="5" y="4" width="22" height="8" rx="1.5" fill="#fff" opacity=".95"/>
  <text x="25" y="10" font-family="Arial,Helvetica,sans-serif" font-size="4.5" font-weight="700" fill="#1e293b" text-anchor="end">1234</text>
  <rect x="5" y="14" width="4.5" height="3" rx=".8" fill="#fff" opacity=".9"/>
  <rect x="11" y="14" width="4.5" height="3" rx=".8" fill="#fff" opacity=".9"/>
  <rect x="17" y="14" width="4.5" height="3" rx=".8" fill="#fff" opacity=".9"/>
  <rect x="23" y="14" width="4.5" height="3" rx=".8" fill="#fff" opacity=".9"/>
  <rect x="5" y="18.5" width="4.5" height="3" rx=".8" fill="#fff" opacity=".9"/>
  <rect x="11" y="18.5" width="4.5" height="3" rx=".8" fill="#fff" opacity=".9"/>
  <rect x="17" y="18.5" width="4.5" height="3" rx=".8" fill="#fff" opacity=".9"/>
  <rect x="23" y="18.5" width="4.5" height="3" rx=".8" fill="#fff" opacity=".9"/>
  <rect x="5" y="23" width="10" height="4.5" rx="1.5" fill="#3b82f6"/>
  <text x="10" y="26" font-family="Arial,Helvetica,sans-serif" font-size="3" font-weight="700" fill="#fff" text-anchor="middle">=</text>
  <rect x="17" y="23" width="10" height="4.5" rx="1.5" fill="#3b82f6"/>
  <text x="22" y="26" font-family="Arial,Helvetica,sans-serif" font-size="3" font-weight="700" fill="#fff" text-anchor="middle">+</text>
</svg>
